# xmcd CD database file
#
# Track frame offsets:
#	150
#	30377
#	53316
#	82414
#	105528
#	125110
#	158322
#	178712
#	210688
#	230536
#	252689
#	274296
#
# Disc length: 3918 seconds
#
# Revision: 0
# Processed by: cddbd v1.5.2PL0 Copyright (c) Steve Scherf et al.
# Submitted via: CDex 1.51
#
DISCID=a30f4c0c
DTITLE=Griese Kappe Quintett - Floating
DYEAR=2008
DGENRE=Jazz
TTITLE0=Floating
TTITLE1=Spieluhr
TTITLE2=Dogon Dance
TTITLE3=Jerry's Mood
TTITLE4=Chasing The Plane
TTITLE5=Ann Britt Hoglund
TTITLE6=Bitte nicht Schlossstraﬂe
TTITLE7=Cyan
TTITLE8=Inner City Drive To Despair
TTITLE9=Memento Mori
TTITLE10=Sassnitz
TTITLE11=Chicken
EXTD=YEAR: 2008
EXTT0=
EXTT1=
EXTT2=
EXTT3=
EXTT4=
EXTT5=
EXTT6=
EXTT7=
EXTT8=
EXTT9=
EXTT10=
EXTT11=
PLAYORDER=
